<mxfile host="app.diagrams.net" modified="2024-07-03T02:18:26.276Z" agent="Mozilla/5.0 (X11; Linux x86_64) AppleWebKit/537.36 (KHTML, like Gecko) Chrome/126.0.0.0 Safari/537.36" etag="vmRgGqA4cjHUET0zYHgh" version="24.6.4" type="device">
  <diagram name="Page-1" id="HtDW4sRi4OhZsNp4Hoju">
    <mxGraphModel dx="1818" dy="594" grid="1" gridSize="10" guides="1" tooltips="1" connect="1" arrows="1" fold="1" page="1" pageScale="1" pageWidth="850" pageHeight="1100" math="0" shadow="0">
      <root>
        <mxCell id="0" />
        <mxCell id="1" parent="0" />
        <mxCell id="giJw9F-4zs8dv731ru9N-1" value="" style="rounded=1;whiteSpace=wrap;html=1;" parent="1" vertex="1">
          <mxGeometry x="200" y="100" width="640" height="530" as="geometry" />
        </mxCell>
        <mxCell id="4lVOYrewODA5zWFDRORf-21" value="АРМ преподавателя" style="shape=umlActor;verticalLabelPosition=bottom;verticalAlign=top;html=1;outlineConnect=0;" parent="1" vertex="1">
          <mxGeometry x="-130" y="405" width="30" height="60" as="geometry" />
        </mxCell>
        <mxCell id="4lVOYrewODA5zWFDRORf-22" value="АРМ администратора" style="shape=umlActor;verticalLabelPosition=bottom;verticalAlign=top;html=1;outlineConnect=0;" parent="1" vertex="1">
          <mxGeometry x="-130" y="290" width="30" height="60" as="geometry" />
        </mxCell>
        <mxCell id="4lVOYrewODA5zWFDRORf-23" value="АРМ студента&lt;br&gt;(интернет)" style="shape=umlActor;verticalLabelPosition=bottom;verticalAlign=top;html=1;outlineConnect=0;" parent="1" vertex="1">
          <mxGeometry x="-130" y="520" width="30" height="60" as="geometry" />
        </mxCell>
        <mxCell id="giJw9F-4zs8dv731ru9N-2" value="Инфраструктура ВУЗ" style="text;html=1;align=center;verticalAlign=middle;resizable=0;points=[];autosize=1;strokeColor=none;fillColor=none;" parent="1" vertex="1">
          <mxGeometry x="230" y="100" width="140" height="30" as="geometry" />
        </mxCell>
        <mxCell id="giJw9F-4zs8dv731ru9N-8" value="" style="rounded=1;whiteSpace=wrap;html=1;dashed=1;dashPattern=8 8;" parent="1" vertex="1">
          <mxGeometry x="200" y="210" width="300" height="390" as="geometry" />
        </mxCell>
        <mxCell id="4lVOYrewODA5zWFDRORf-4" value="Сервер виртуальных лабораторных сред + Gitlab Runner" style="rounded=0;whiteSpace=wrap;html=1;" parent="1" vertex="1">
          <mxGeometry x="305" y="280" width="120" height="60" as="geometry" />
        </mxCell>
        <mxCell id="giJw9F-4zs8dv731ru9N-22" style="edgeStyle=orthogonalEdgeStyle;rounded=0;orthogonalLoop=1;jettySize=auto;html=1;exitX=0.75;exitY=1;exitDx=0;exitDy=0;entryX=0;entryY=0.5;entryDx=0;entryDy=0;" parent="1" source="4lVOYrewODA5zWFDRORf-1" target="4lVOYrewODA5zWFDRORf-2" edge="1">
          <mxGeometry relative="1" as="geometry">
            <Array as="points">
              <mxPoint x="210" y="465" />
              <mxPoint x="210" y="560" />
            </Array>
          </mxGeometry>
        </mxCell>
        <mxCell id="giJw9F-4zs8dv731ru9N-23" value="TCP 22,&amp;nbsp;&lt;div style=&quot;font-size: 10px;&quot;&gt;80, 443, 2222&amp;nbsp;&lt;/div&gt;" style="edgeLabel;html=1;align=center;verticalAlign=middle;resizable=0;points=[];fontSize=10;" parent="giJw9F-4zs8dv731ru9N-22" vertex="1" connectable="0">
          <mxGeometry x="0.3952" y="-2" relative="1" as="geometry">
            <mxPoint x="14" y="-2" as="offset" />
          </mxGeometry>
        </mxCell>
        <mxCell id="giJw9F-4zs8dv731ru9N-25" style="edgeStyle=orthogonalEdgeStyle;rounded=0;orthogonalLoop=1;jettySize=auto;html=1;exitX=0.75;exitY=0;exitDx=0;exitDy=0;entryX=0;entryY=0.5;entryDx=0;entryDy=0;" parent="1" source="4lVOYrewODA5zWFDRORf-1" target="4lVOYrewODA5zWFDRORf-4" edge="1">
          <mxGeometry relative="1" as="geometry">
            <Array as="points">
              <mxPoint x="220" y="405" />
              <mxPoint x="220" y="310" />
            </Array>
          </mxGeometry>
        </mxCell>
        <mxCell id="giJw9F-4zs8dv731ru9N-26" value="TCP 22" style="edgeLabel;html=1;align=center;verticalAlign=middle;resizable=0;points=[];" parent="giJw9F-4zs8dv731ru9N-25" vertex="1" connectable="0">
          <mxGeometry x="0.464" y="-1" relative="1" as="geometry">
            <mxPoint as="offset" />
          </mxGeometry>
        </mxCell>
        <mxCell id="4lVOYrewODA5zWFDRORf-1" value="WireGuard" style="rounded=0;whiteSpace=wrap;html=1;" parent="1" vertex="1">
          <mxGeometry x="150" y="405" width="120" height="60" as="geometry" />
        </mxCell>
        <mxCell id="giJw9F-4zs8dv731ru9N-10" value="Pentest платформа" style="text;html=1;align=center;verticalAlign=middle;resizable=0;points=[];autosize=1;strokeColor=none;fillColor=none;" parent="1" vertex="1">
          <mxGeometry x="215" y="210" width="130" height="30" as="geometry" />
        </mxCell>
        <mxCell id="giJw9F-4zs8dv731ru9N-12" value="" style="endArrow=classic;html=1;rounded=0;entryX=0.002;entryY=0.584;entryDx=0;entryDy=0;entryPerimeter=0;" parent="1" target="4lVOYrewODA5zWFDRORf-1" edge="1">
          <mxGeometry width="50" height="50" relative="1" as="geometry">
            <mxPoint x="-90" y="325" as="sourcePoint" />
            <mxPoint x="100" y="440.0000000000001" as="targetPoint" />
            <Array as="points">
              <mxPoint x="-10" y="325" />
              <mxPoint x="-10" y="440" />
            </Array>
          </mxGeometry>
        </mxCell>
        <mxCell id="giJw9F-4zs8dv731ru9N-16" value="TCP 80, 443&lt;div&gt;&lt;p class=&quot;docData;DOCY;v5;1821;BQiAAgAAEYQCAAAGiAIAAAOEBgAABZIGAAAAAAAAAAAAAAAAAAAAAAAAAAAAAAAAAAAAAAAAAAAAAAAAAAAAAAAAAAAAAAAAAAAAAAAAAAAAAAAAAAAAAAAAAAAAAAAAAAAAAAAAAAAAAAAAAAAAAAAAAAAAAAAAAAAAAAAAAAAAAAAAAAAAAAAAAAAAAAAAAAAAAAAAAAAAAAAAAAAAAAAAAAAAAAAAAAAAAAAAAAAAAAAAAAAAAAAAAAAAAAAAAAAAAAAAAAAAAAAAAAAAAAAAAAAAAAAAAAAAAAAAAAAAAAAAAAAAAAAAAAAAAAAAAAAAAAAAAAAAAAAAAAAAAAAAAAAAAAAAAAAAAAAAAAAAAAAAAAAAAAAAAAAAAAAAAAAAAAAAAAAAAAAAAAAAAAAAAAAAAAAAAAAAAAAAAAAAAAAAAAAAAAAAAAAAAAAAAAAAAAAAAAAAAAAAAAAAAAAAAAAAAAAAAAAAAAAAAAAAAAAAAAAAAAAAAAAAAAAAAAAAAAAAAAAAAAAAAAAAAAAAAAAAAAAAAAAAAAAAAAAAAAAAAAAAAAAAAAAAAAAAAAAAAAAAAAAAAAAAAAAAAAAAAAAAAAAAAAAAAAAAAAAAAAAAAAAAAAAAAAAAAAAAAAAAAAAAAAAAAAAAAAAAAAAAAAAAAAAAAAAAAAAAAAAAAAAAAAAAAAAAAAAAAAAAAAAAAAAAAAAAAAAAAAAAAAAAAAAAAAAAAAAAAAAAAAAAAAAAAAAAAAAAAAAAAAAAAAAAAAAAAAAAAAAAAAAAAAAAAAAAAAAAAAAAAAAAAAAAAAAAAAAAAAAAAAAAAAAAAAAAAAAAAAAAAAAAAAAAAAAAAAAAAAAA+AMAAADzAwAAAasAAAABBgAAAAAFAQIJBhIAAAAnBCABAAALAQEdAQApBAAAAAAaBn4AAAAEBh4AAABUAGkAbQBlAHMAIABOAGUAdwAgAFIAbwBtAGEAbgAFBh4AAABUAGkAbQBlAHMAIABOAGUAdwAgAFIAbwBtAGEAbgAHBh4AAABUAGkAbQBlAHMAIABOAGUAdwAgAFIAbwBtAGEAbgAIBBgAAAAMAQAWBBgAAAAuAQAbBgAAAAACPgMAAAW5AAAAAa8AAAAEBh4AAABUAGkAbQBlAHMAIABOAGUAdwAgAFIAbwBtAGEAbgAFBh4AAABUAGkAbQBlAHMAIABOAGUAdwAgAFIAbwBtAGEAbgAHBh4AAABUAGkAbQBlAHMAIABOAGUAdwAgAFIAbwBtAGEAbgAGBh4AAABUAGkAbQBlAHMAIABOAGUAdwAgAFIAbwBtAGEAbgAIBBgAAAAMAQAWBBgAAAAZBgoAAAByAHUALQBSAFUACAAAAAAF1AAAAAGvAAAABAYeAAAAVABpAG0AZQBzACAATgBlAHcAIABSAG8AbQBhAG4ABQYeAAAAVABpAG0AZQBzACAATgBlAHcAIABSAG8AbQBhAG4ABwYeAAAAVABpAG0AZQBzACAATgBlAHcAIABSAG8AbQBhAG4ABgYeAAAAVABpAG0AZQBzACAATgBlAHcAIABSAG8AbQBhAG4ACAQYAAAADAEAFgQYAAAAGQYKAAAAcgB1AC0AUgBVAAgbAAAAABYAAAA1ADEAOAAyADEALQA1ADEAOAAzADAABYgAAAABfgAAAAQGHgAAAFQAaQBtAGUAcwAgAE4AZQB3ACAAUgBvAG0AYQBuAAUGHgAAAFQAaQBtAGUAcwAgAE4AZQB3ACAAUgBvAG0AYQBuAAcGHgAAAFQAaQBtAGUAcwAgAE4AZQB3ACAAUgBvAG0AYQBuAAgEGAAAAAwBABYEGAAAAC4BAAgAAAAABYgAAAABfgAAAAQGHgAAAFQAaQBtAGUAcwAgAE4AZQB3ACAAUgBvAG0AYQBuAAUGHgAAAFQAaQBtAGUAcwAgAE4AZQB3ACAAUgBvAG0AYQBuAAcGHgAAAFQAaQBtAGUAcwAgAE4AZQB3ACAAUgBvAG0AYQBuAAgEGAAAAAwBABYEGAAAAC4BAAgAAAAABYgAAAABfgAAAAQGHgAAAFQAaQBtAGUAcwAgAE4AZQB3ACAAUgBvAG0AYQBuAAUGHgAAAFQAaQBtAGUAcwAgAE4AZQB3ACAAUgBvAG0AYQBuAAcGHgAAAFQAaQBtAGUAcwAgAE4AZQB3ACAAUgBvAG0AYQBuAAgEGAAAAAwBABYEGAAAAC4BAAgAAAAACgAAAAAAAAAAEQAAAACHAAAAAC0AAAABBgAAAAAJBhsAAAAnBBQBAAALAQEcAQAoBAAAAAAdAQApBMgAAAAbBgAAAAABSwAAACgBBykBByoBBysBBRMBAQgEFgAAABYEFgAAABkGCgAAAGUAbgAtAFUAUwAaBgoAAABhAHIALQBTAEEAGwYKAAAAZQBuAC0AVQBTAAIAAAAA&quot; style=&quot;line-height: 120%; margin-top: 0pt; margin-bottom: 0pt; border: none;&quot;&gt;&lt;font face=&quot;Helvetica&quot; style=&quot;font-size: 11px;&quot;&gt;UDP 51821-51830&lt;/font&gt;&lt;/p&gt;&lt;/div&gt;" style="edgeLabel;html=1;align=center;verticalAlign=middle;resizable=0;points=[];" parent="giJw9F-4zs8dv731ru9N-12" vertex="1" connectable="0">
          <mxGeometry x="0.5269" y="1" relative="1" as="geometry">
            <mxPoint x="4" y="1" as="offset" />
          </mxGeometry>
        </mxCell>
        <mxCell id="giJw9F-4zs8dv731ru9N-14" value="" style="endArrow=none;html=1;rounded=0;" parent="1" edge="1">
          <mxGeometry width="50" height="50" relative="1" as="geometry">
            <mxPoint x="-80" y="440" as="sourcePoint" />
            <mxPoint x="-10" y="440" as="targetPoint" />
          </mxGeometry>
        </mxCell>
        <mxCell id="giJw9F-4zs8dv731ru9N-15" value="" style="endArrow=none;html=1;rounded=0;" parent="1" edge="1">
          <mxGeometry width="50" height="50" relative="1" as="geometry">
            <mxPoint x="-90" y="560" as="sourcePoint" />
            <mxPoint x="-10" y="440" as="targetPoint" />
            <Array as="points">
              <mxPoint x="-10" y="560" />
            </Array>
          </mxGeometry>
        </mxCell>
        <mxCell id="4lVOYrewODA5zWFDRORf-2" value="Gitlab" style="rounded=0;whiteSpace=wrap;html=1;" parent="1" vertex="1">
          <mxGeometry x="305" y="530" width="120" height="60" as="geometry" />
        </mxCell>
        <mxCell id="giJw9F-4zs8dv731ru9N-19" value="" style="rounded=1;whiteSpace=wrap;html=1;dashed=1;" parent="1" vertex="1">
          <mxGeometry x="500" y="210" width="340" height="390" as="geometry" />
        </mxCell>
        <mxCell id="4lVOYrewODA5zWFDRORf-5" value="VLAN X" style="text;html=1;align=center;verticalAlign=middle;resizable=0;points=[];autosize=1;strokeColor=none;fillColor=none;" parent="1" vertex="1">
          <mxGeometry x="510" y="210" width="70" height="30" as="geometry" />
        </mxCell>
        <mxCell id="4lVOYrewODA5zWFDRORf-36" value="виртуальная лабораторная среда 1" style="rounded=1;whiteSpace=wrap;html=1;dashed=1;dashPattern=12 12;" parent="1" vertex="1">
          <mxGeometry x="520" y="300" width="120" height="60" as="geometry" />
        </mxCell>
        <mxCell id="giJw9F-4zs8dv731ru9N-27" value="виртуальная лабораторная среда 2" style="rounded=1;whiteSpace=wrap;html=1;dashed=1;dashPattern=12 12;" parent="1" vertex="1">
          <mxGeometry x="520" y="405" width="120" height="60" as="geometry" />
        </mxCell>
        <mxCell id="giJw9F-4zs8dv731ru9N-28" value="виртуальная лабораторная среда n" style="rounded=1;whiteSpace=wrap;html=1;dashed=1;dashPattern=12 12;" parent="1" vertex="1">
          <mxGeometry x="520" y="510" width="120" height="60" as="geometry" />
        </mxCell>
        <mxCell id="giJw9F-4zs8dv731ru9N-30" style="edgeStyle=orthogonalEdgeStyle;rounded=0;orthogonalLoop=1;jettySize=auto;html=1;entryX=0.5;entryY=0;entryDx=0;entryDy=0;exitX=0.143;exitY=0.5;exitDx=0;exitDy=0;exitPerimeter=0;" parent="1" source="4lVOYrewODA5zWFDRORf-5" target="4lVOYrewODA5zWFDRORf-4" edge="1">
          <mxGeometry relative="1" as="geometry">
            <mxPoint x="600" y="255" as="sourcePoint" />
          </mxGeometry>
        </mxCell>
        <mxCell id="giJw9F-4zs8dv731ru9N-31" value="trunk" style="edgeLabel;html=1;align=center;verticalAlign=middle;resizable=0;points=[];" parent="giJw9F-4zs8dv731ru9N-30" vertex="1" connectable="0">
          <mxGeometry x="0.3608" y="2" relative="1" as="geometry">
            <mxPoint x="46" y="-2" as="offset" />
          </mxGeometry>
        </mxCell>
        <mxCell id="giJw9F-4zs8dv731ru9N-32" style="edgeStyle=orthogonalEdgeStyle;rounded=0;orthogonalLoop=1;jettySize=auto;html=1;" parent="1" source="4lVOYrewODA5zWFDRORf-1" target="giJw9F-4zs8dv731ru9N-27" edge="1">
          <mxGeometry relative="1" as="geometry" />
        </mxCell>
        <mxCell id="giJw9F-4zs8dv731ru9N-35" value="any" style="edgeLabel;html=1;align=center;verticalAlign=middle;resizable=0;points=[];" parent="giJw9F-4zs8dv731ru9N-32" vertex="1" connectable="0">
          <mxGeometry x="-0.1568" relative="1" as="geometry">
            <mxPoint as="offset" />
          </mxGeometry>
        </mxCell>
        <mxCell id="giJw9F-4zs8dv731ru9N-33" value="" style="endArrow=classic;html=1;rounded=0;entryX=0;entryY=0.5;entryDx=0;entryDy=0;" parent="1" target="4lVOYrewODA5zWFDRORf-36" edge="1">
          <mxGeometry width="50" height="50" relative="1" as="geometry">
            <mxPoint x="440" y="440" as="sourcePoint" />
            <mxPoint x="470" y="330" as="targetPoint" />
            <Array as="points">
              <mxPoint x="440" y="330" />
            </Array>
          </mxGeometry>
        </mxCell>
        <mxCell id="giJw9F-4zs8dv731ru9N-34" value="" style="endArrow=classic;html=1;rounded=0;entryX=0;entryY=0.5;entryDx=0;entryDy=0;" parent="1" target="giJw9F-4zs8dv731ru9N-28" edge="1">
          <mxGeometry width="50" height="50" relative="1" as="geometry">
            <mxPoint x="440" y="440" as="sourcePoint" />
            <mxPoint x="470" y="540" as="targetPoint" />
            <Array as="points">
              <mxPoint x="440" y="540" />
            </Array>
          </mxGeometry>
        </mxCell>
        <mxCell id="giJw9F-4zs8dv731ru9N-36" value="" style="endArrow=classic;html=1;rounded=0;entryX=0.25;entryY=1;entryDx=0;entryDy=0;" parent="1" target="4lVOYrewODA5zWFDRORf-1" edge="1">
          <mxGeometry width="50" height="50" relative="1" as="geometry">
            <mxPoint x="-160" y="440" as="sourcePoint" />
            <mxPoint x="-250" y="520" as="targetPoint" />
            <Array as="points">
              <mxPoint x="-240" y="440" />
              <mxPoint x="-240" y="680" />
              <mxPoint x="180" y="680" />
            </Array>
          </mxGeometry>
        </mxCell>
        <mxCell id="giJw9F-4zs8dv731ru9N-38" value="" style="endArrow=classic;html=1;rounded=0;entryX=0.25;entryY=1;entryDx=0;entryDy=0;" parent="1" edge="1">
          <mxGeometry width="50" height="50" relative="1" as="geometry">
            <mxPoint x="-160" y="440" as="sourcePoint" />
            <mxPoint x="180" y="465" as="targetPoint" />
            <Array as="points">
              <mxPoint x="-240" y="440" />
              <mxPoint x="-240" y="680" />
              <mxPoint x="180" y="680" />
            </Array>
          </mxGeometry>
        </mxCell>
        <mxCell id="giJw9F-4zs8dv731ru9N-40" value="" style="endArrow=classic;html=1;rounded=0;entryX=0.5;entryY=1;entryDx=0;entryDy=0;" parent="1" target="4lVOYrewODA5zWFDRORf-2" edge="1">
          <mxGeometry width="50" height="50" relative="1" as="geometry">
            <mxPoint x="-160" y="320" as="sourcePoint" />
            <mxPoint x="360" y="760" as="targetPoint" />
            <Array as="points">
              <mxPoint x="-280" y="320" />
              <mxPoint x="-280" y="760" />
              <mxPoint x="365" y="760" />
            </Array>
          </mxGeometry>
        </mxCell>
        <mxCell id="giJw9F-4zs8dv731ru9N-44" value="TCP 2222" style="edgeLabel;html=1;align=center;verticalAlign=middle;resizable=0;points=[];" parent="giJw9F-4zs8dv731ru9N-40" vertex="1" connectable="0">
          <mxGeometry x="0.835" relative="1" as="geometry">
            <mxPoint as="offset" />
          </mxGeometry>
        </mxCell>
        <mxCell id="giJw9F-4zs8dv731ru9N-41" value="TCP 22" style="edgeLabel;html=1;align=center;verticalAlign=middle;resizable=0;points=[];" parent="1" vertex="1" connectable="0">
          <mxGeometry x="-9.588235294118022" y="679.9999999999998" as="geometry">
            <mxPoint x="191" y="-61" as="offset" />
          </mxGeometry>
        </mxCell>
        <mxCell id="giJw9F-4zs8dv731ru9N-45" value="" style="endArrow=none;html=1;rounded=0;" parent="1" edge="1">
          <mxGeometry width="50" height="50" relative="1" as="geometry">
            <mxPoint x="180" y="760" as="sourcePoint" />
            <mxPoint x="180" y="680" as="targetPoint" />
          </mxGeometry>
        </mxCell>
        <mxCell id="giJw9F-4zs8dv731ru9N-47" value="" style="endArrow=none;html=1;rounded=0;" parent="1" edge="1">
          <mxGeometry width="50" height="50" relative="1" as="geometry">
            <mxPoint x="-280" y="320" as="sourcePoint" />
            <mxPoint x="220" y="310" as="targetPoint" />
            <Array as="points">
              <mxPoint x="-280" y="240" />
              <mxPoint y="240" />
              <mxPoint y="310" />
            </Array>
          </mxGeometry>
        </mxCell>
        <mxCell id="xFHGdj9mBKV9QLSKRRzO-4" value="" style="endArrow=classic;html=1;rounded=0;" edge="1" parent="1">
          <mxGeometry width="50" height="50" relative="1" as="geometry">
            <mxPoint x="180" y="760" as="sourcePoint" />
            <mxPoint x="180" y="680" as="targetPoint" />
          </mxGeometry>
        </mxCell>
      </root>
    </mxGraphModel>
  </diagram>
</mxfile>
